<svg id="box" xmlns="http://www.w3.org/2000/svg" width="25.935" height="21.063" viewBox="0 0 25.935 21.063">
  <g id="Group_34" data-name="Group 34" transform="translate(0 0)">
    <path id="Path_81" data-name="Path 81" d="M25.883,57.624l-2.842-4.873a.38.38,0,0,0-.17-.154l-9.745-4.467a.38.38,0,0,0-.317,0L3.064,52.6a.38.38,0,0,0-.17.154L.051,57.624a.38.38,0,0,0,.17.537l9.745,4.467a.38.38,0,0,0,.486-.154l2.134-3.659v9.372L3.6,64.068V60.886a.38.38,0,1,0-.76,0v3.426a.38.38,0,0,0,.222.345l9.745,4.467a.38.38,0,0,0,.317,0l9.745-4.467a.38.38,0,0,0,.222-.345V60.886a.38.38,0,1,0-.76,0v3.182l-8.985,4.118V58.815l2.134,3.659a.38.38,0,0,0,.486.154l9.745-4.467a.38.38,0,0,0,.17-.537ZM9.97,61.793.919,57.645l2.458-4.213,9.051,4.148Zm3-4.8L4.134,52.943l8.834-4.049L21.8,52.943Zm3,4.8L13.507,57.58l9.051-4.148,2.458,4.213Z" transform="translate(0 -48.096)" fill="#fff"/>
  </g>
</svg>
