<svg xmlns="http://www.w3.org/2000/svg" width="33.265" height="25.427" viewBox="0 0 33.265 25.427">
  <g id="camera" transform="translate(0 -3.573)">
    <g id="Group_19" data-name="Group 19" transform="translate(0 3.573)">
      <g id="Group_18" data-name="Group 18">
        <path id="Path_47" data-name="Path 47" d="M4.551,5.471c0-.3-.447-.536-1-.536s-1,.24-1,.536v.287h2Z" transform="translate(0.845 -2.288)" fill="#fff"/>
        <path id="Path_48" data-name="Path 48" d="M9.756,6.282l.55-1.654a.685.685,0,0,1,.49-.353h6.167a.676.676,0,0,1,.488.351L18,6.282l.052.136h1.381c-.007-.024,0-.043-.008-.067l-.713-2.144a1.978,1.978,0,0,0-1.751-1.261H10.8A1.975,1.975,0,0,0,9.044,4.207L8.331,6.35c-.008.024,0,.043-.008.067H9.7Z" transform="translate(2.752 -2.946)" fill="#fff"/>
        <path id="Path_49" data-name="Path 49" d="M24.419,5.988v-.66c0-.488-1.279-.884-2.855-.884s-2.855.4-2.855.884V5.92h5.046A4.369,4.369,0,0,1,24.419,5.988Z" transform="translate(6.185 -2.451)" fill="#fff"/>
        <path id="Path_50" data-name="Path 50" d="M29.939,6.055H3.327A3.336,3.336,0,0,0,0,9.382v2.661H9.352a8.637,8.637,0,0,1,14.564,0h9.35V9.382A3.336,3.336,0,0,0,29.939,6.055Z" transform="translate(0 -1.918)" fill="#fff"/>
        <path id="Path_51" data-name="Path 51" d="M25.282,14.882A8.649,8.649,0,1,1,8.649,11.555H0V22.2a3.336,3.336,0,0,0,3.327,3.327H29.939A3.336,3.336,0,0,0,33.265,22.2V11.555H24.616A8.639,8.639,0,0,1,25.282,14.882Z" transform="translate(0 -0.1)" fill="#fff"/>
        <path id="Path_52" data-name="Path 52" d="M18.221,19.774a5.987,5.987,0,1,0-8.467,0A5.985,5.985,0,0,0,18.221,19.774Zm-7.056-7.054a3.991,3.991,0,1,1,5.644,5.644c-1.557,1.558-1.264-1.264-2.822-2.822S9.607,14.278,11.165,12.721Z" transform="translate(2.645 -0.761)" fill="#fff"/>
      </g>
    </g>
  </g>
</svg>
