<svg id="chopsticks" xmlns="http://www.w3.org/2000/svg" xmlns:xlink="http://www.w3.org/1999/xlink" width="149.999" height="149.999" viewBox="0 0 149.999 149.999">
  <defs>
    <linearGradient id="linear-gradient" x1="0.513" y1="2.22" x2="0.919" y2="1.813" gradientUnits="objectBoundingBox">
      <stop offset="0" stop-color="#ffe7a5"/>
      <stop offset="0.175" stop-color="#ffdf96"/>
      <stop offset="0.721" stop-color="#ffc86c"/>
      <stop offset="1" stop-color="#ffbf5c"/>
    </linearGradient>
    <linearGradient id="linear-gradient-2" x1="0.551" y1="2.42" x2="0.407" y2="2.275" gradientUnits="objectBoundingBox">
      <stop offset="0" stop-color="#ffbf5c" stop-opacity="0"/>
      <stop offset="1" stop-color="#ffbf5c"/>
    </linearGradient>
    <linearGradient id="linear-gradient-3" x1="0.229" y1="3.546" x2="0.78" y2="4.098" xlink:href="#linear-gradient"/>
    <linearGradient id="linear-gradient-4" x1="0.46" y1="3.007" x2="0.206" y2="3.237" gradientUnits="objectBoundingBox">
      <stop offset="0" stop-color="#ff931e" stop-opacity="0"/>
      <stop offset="1" stop-color="#ff5d00"/>
    </linearGradient>
    <linearGradient id="linear-gradient-5" x1="0.48" y1="0.421" x2="0.538" y2="0.372" gradientUnits="objectBoundingBox">
      <stop offset="0" stop-color="#654e48"/>
      <stop offset="1" stop-color="#503837"/>
    </linearGradient>
    <linearGradient id="linear-gradient-6" x1="0.295" y1="-8.312" x2="0.796" y2="-8.775" gradientUnits="objectBoundingBox">
      <stop offset="0" stop-color="#ffe7a5"/>
      <stop offset="0.216" stop-color="#ffe29c"/>
      <stop offset="0.577" stop-color="#ffd482"/>
      <stop offset="1" stop-color="#ffbf5c"/>
    </linearGradient>
    <linearGradient id="linear-gradient-7" x1="0.286" y1="-7.213" x2="0.803" y2="-7.69" xlink:href="#linear-gradient-6"/>
    <linearGradient id="linear-gradient-8" x1="0.534" y1="0.504" x2="0.485" y2="0.562" gradientUnits="objectBoundingBox">
      <stop offset="0" stop-color="#503837"/>
      <stop offset="1" stop-color="#654e48"/>
    </linearGradient>
    <linearGradient id="linear-gradient-9" x1="0.803" y1="-6.72" x2="0.34" y2="-6.219" gradientUnits="objectBoundingBox">
      <stop offset="0" stop-color="#ffbf5c"/>
      <stop offset="0.423" stop-color="#ffd482"/>
      <stop offset="0.784" stop-color="#ffe29c"/>
      <stop offset="1" stop-color="#ffe7a5"/>
    </linearGradient>
    <linearGradient id="linear-gradient-10" x1="0.756" y1="-5.682" x2="0.279" y2="-5.165" xlink:href="#linear-gradient-9"/>
  </defs>
  <path id="Path_1" data-name="Path 1" d="M375.975,31.358a16.593,16.593,0,0,0-7.444-4.323,23.105,23.105,0,0,1-10.252-6.069,23.112,23.112,0,0,1-6.069-10.252,16.587,16.587,0,0,0-4.323-7.444L345.86,1.244a4.244,4.244,0,0,0-6,0L325.48,15.622a4.244,4.244,0,0,0,0,6l2.027,2.027a16.594,16.594,0,0,0,7.444,4.323A23.989,23.989,0,0,1,351.271,44.3a16.591,16.591,0,0,0,4.323,7.444l2.027,2.027a4.244,4.244,0,0,0,6,0L378,39.388a4.244,4.244,0,0,0,0-6Z" transform="translate(-229.246 -0.001)" fill="url(#linear-gradient)"/>
  <path id="Path_2" data-name="Path 2" d="M333.723,25.182l-8.244,8.244a4.244,4.244,0,0,0,0,6l2.027,2.027a16.594,16.594,0,0,0,7.444,4.323A23.989,23.989,0,0,1,351.27,62.1a16.59,16.59,0,0,0,4.323,7.444l2.027,2.027a4.244,4.244,0,0,0,6,0l8.244-8.244Z" transform="translate(-229.246 -17.805)" fill="url(#linear-gradient-2)"/>
  <path id="Path_3" data-name="Path 3" d="M380.21,45.706l15.966,15.965a4.813,4.813,0,0,1,0,6.807l-3.463,3.463a4.813,4.813,0,0,1-6.807,0L369.94,55.976a4.813,4.813,0,0,1,0-6.807l3.463-3.463A4.813,4.813,0,0,1,380.21,45.706Z" transform="translate(-260.563 -31.319)" fill="url(#linear-gradient-3)"/>
  <path id="Path_4" data-name="Path 4" d="M429.8,85.181a16.594,16.594,0,0,0-7.444-4.323,22.668,22.668,0,0,1-8.8-4.733L400.361,89.314a22.667,22.667,0,0,1,4.733,8.8,16.59,16.59,0,0,0,4.323,7.444l.924.924L430.722,86.1Z" transform="translate(-283.069 -53.823)" fill="url(#linear-gradient-4)"/>
  <path id="Path_5" data-name="Path 5" d="M49.443,183.583h0a5.97,5.97,0,0,1-.313-8.539L168.986,50.517a2.667,2.667,0,0,1,3.722-.137h0a2.667,2.667,0,0,1,.227,3.718L57.972,183.062A5.969,5.969,0,0,1,49.443,183.583Z" transform="translate(-33.572 -35.132)" fill="url(#linear-gradient-5)"/>
  <path id="Path_6" data-name="Path 6" d="M80.383,452.4,71.83,444.64l5.236-5.5,8.279,7.508Z" transform="translate(-50.786 -310.488)" fill="url(#linear-gradient-6)"/>
  <path id="Path_7" data-name="Path 7" d="M107.938,422.622l-8.123-7.367,5.236-5.5,7.849,7.118Z" transform="translate(-70.573 -289.712)" fill="url(#linear-gradient-7)"/>
  <path id="Path_8" data-name="Path 8" d="M1.548,158.231h0a5.97,5.97,0,0,0,8.539.313L134.615,38.687a2.667,2.667,0,0,0,.137-3.722h0a2.667,2.667,0,0,0-3.718-.227L2.069,149.7A5.969,5.969,0,0,0,1.548,158.231Z" transform="translate(0 -24.103)" fill="url(#linear-gradient-8)"/>
  <path id="Path_9" data-name="Path 9" d="M27.614,399l7.757,8.553,5.5-5.236-7.508-8.279Z" transform="translate(-19.524 -278.598)" fill="url(#linear-gradient-9)"/>
  <path id="Path_10" data-name="Path 10" d="M58.33,372.484l7.367,8.123,5.5-5.236-7.118-7.849Z" transform="translate(-41.241 -259.851)" fill="url(#linear-gradient-10)"/>
</svg>
