<svg xmlns="http://www.w3.org/2000/svg" width="17.29" height="17.646" viewBox="0 0 17.29 17.646">
  <g id="feedback" transform="translate(-5.171)" style="isolation: isolate">
    <g id="Group_36" data-name="Group 36" transform="translate(5.171)">
      <g id="Group_35" data-name="Group 35">
        <path id="Path_82" data-name="Path 82" d="M19.048,0H8.584A3.386,3.386,0,0,0,6.555.668a.259.259,0,0,0,.309.417A2.87,2.87,0,0,1,8.584.519H19.048a2.9,2.9,0,0,1,2.894,2.894v6.864a2.9,2.9,0,0,1-2.894,2.894H14.625a.39.39,0,0,0-.283.122L10.79,17.069a.183.183,0,0,1-.316-.125V13.559a.389.389,0,0,0-.389-.389h-1.5A2.9,2.9,0,0,1,5.69,10.276V3.413A2.877,2.877,0,0,1,6.2,1.778a.259.259,0,1,0-.428-.293,3.4,3.4,0,0,0-.6,1.928v6.864a3.416,3.416,0,0,0,3.413,3.413H9.955v3.256a.7.7,0,0,0,.443.652.705.705,0,0,0,.26.05.7.7,0,0,0,.509-.221l3.514-3.736h4.367a3.416,3.416,0,0,0,3.413-3.413V3.413A3.416,3.416,0,0,0,19.048,0Z" transform="translate(-5.171 0)" fill="#fff"/>
      </g>
    </g>
    <g id="Group_38" data-name="Group 38" transform="translate(9.414 3.493)">
      <g id="Group_37" data-name="Group 37">
        <path id="Path_83" data-name="Path 83" d="M136.416,102.017a2.312,2.312,0,0,0-3.266,0l-.452.452a.016.016,0,0,1-.012,0,.016.016,0,0,1-.012,0l-.445-.445a2.309,2.309,0,0,0-3.266,3.266l3.344,3.344a.535.535,0,0,0,.757,0L134.9,106.8a.259.259,0,1,0-.367-.367l-1.838,1.838a.016.016,0,0,1-.012,0,.016.016,0,0,1-.012,0l-3.344-3.344a1.791,1.791,0,1,1,2.532-2.532l.445.445a.536.536,0,0,0,.757,0l.452-.452a1.791,1.791,0,1,1,2.532,2.532l-.775.775a.259.259,0,1,0,.367.367l.775-.775A2.312,2.312,0,0,0,136.416,102.017Z" transform="translate(-128.288 -101.342)" fill="#fff"/>
      </g>
    </g>
  </g>
</svg>
