<svg id="Glyph" xmlns="http://www.w3.org/2000/svg" width="34.177" height="35.496" viewBox="0 0 34.177 35.496">
  <path id="Path_95" data-name="Path 95" d="M35.385,119.044c-.319-.128-.652-.248-.992-.363l1.668,5a2.973,2.973,0,0,1-1.878,3.757,35.256,35.256,0,0,1-9.849,1.637,35.256,35.256,0,0,1-9.849-1.637,2.97,2.97,0,0,1-1.717-4.145l2.456-4.912c-.682.2-1.333.418-1.941.661C9.876,120.407,8,122.388,8,124.623s1.876,4.216,5.283,5.579a30.73,30.73,0,0,0,11.051,1.846A30.73,30.73,0,0,0,35.385,130.2c3.407-1.363,5.283-3.344,5.283-5.579S38.792,120.407,35.385,119.044Z" transform="translate(-8 -96.551)" fill="#fff"/>
  <path id="Path_96" data-name="Path 96" d="M47.241,4.534a2.644,2.644,0,0,1,2.623,2.659.371.371,0,1,0,.742,0,2.644,2.644,0,0,1,2.623-2.659.371.371,0,1,0,0-.742,2.644,2.644,0,0,1-2.623-2.659.371.371,0,1,0-.742,0,2.644,2.644,0,0,1-2.623,2.659.371.371,0,0,0,0,.742Z" transform="translate(-39.655 -0.761)" fill="#fff"/>
  <path id="Path_97" data-name="Path 97" d="M162.229,64.791a2.644,2.644,0,0,1-2.623-2.659.371.371,0,0,0-.742,0,2.644,2.644,0,0,1-2.623,2.659.371.371,0,1,0,0,.742,2.644,2.644,0,0,1,2.623,2.659.371.371,0,0,0,.742,0,2.644,2.644,0,0,1,2.623-2.659.371.371,0,0,0,0-.742Z" transform="translate(-128.424 -50.439)" fill="#fff"/>
  <path id="Path_98" data-name="Path 98" d="M12.241,67.534a2.644,2.644,0,0,1,2.623,2.659.371.371,0,1,0,.742,0,2.644,2.644,0,0,1,2.623-2.659.371.371,0,1,0,0-.742,2.644,2.644,0,0,1-2.623-2.659.371.371,0,0,0-.742,0,2.644,2.644,0,0,1-2.623,2.659.371.371,0,0,0,0,.742Z" transform="translate(-11.152 -52.067)" fill="#fff"/>
  <path id="Path_99" data-name="Path 99" d="M58.872,26.394v2.355l-2.535,2.535a1.482,1.482,0,0,0-.278.386l-2,4.005a26.022,26.022,0,0,0,7.785,1.114,25.167,25.167,0,0,0,8.533-1.371l-.99-2.97,1.21-2.42a1.485,1.485,0,0,0-.278-1.714l-2.535-2.535v-1.86l4.158-5.544a1.485,1.485,0,0,0-1.852-2.219l-8.909,4.455a1.485,1.485,0,0,0-.745.858l-1.485,4.455A1.49,1.49,0,0,0,58.872,26.394Z" transform="translate(-45.507 -13.171)" fill="#fff"/>
  <path id="Path_100" data-name="Path 100" d="M41.974,127.925l-1.817,3.634a1.485,1.485,0,0,0,.858,2.073,33.617,33.617,0,0,0,9.379,1.561,33.618,33.618,0,0,0,9.379-1.561,1.485,1.485,0,0,0,.939-1.878l-1.346-4.038a24.639,24.639,0,0,1-8.972,1.538A25.323,25.323,0,0,1,41.974,127.925Z" transform="translate(-34.061 -104.151)" fill="#fff"/>
</svg>
