<svg id="speaker" xmlns="http://www.w3.org/2000/svg" width="41" height="34.544" viewBox="0 0 41 34.544">
  <g id="Group_17" data-name="Group 17">
    <path id="Path_42" data-name="Path 42" d="M341.636,213.072a1.2,1.2,0,0,0,0,1.7,2,2,0,0,1,0,2.831,1.2,1.2,0,0,0,1.7,1.7,4.409,4.409,0,0,0,0-6.228A1.2,1.2,0,0,0,341.636,213.072Z" transform="translate(-313.956 -198.915)" fill="#fb5252"/>
    <path id="Path_43" data-name="Path 43" d="M388.59,167.818a1.2,1.2,0,1,0-1.7,1.7,7.135,7.135,0,0,1,0,10.079,1.2,1.2,0,1,0,1.7,1.7A9.54,9.54,0,0,0,388.59,167.818Z" transform="translate(-355.587 -157.284)" fill="#fb5252"/>
    <path id="Path_44" data-name="Path 44" d="M433.844,122.563a1.2,1.2,0,1,0-1.7,1.7,12.121,12.121,0,0,1,0,17.326,1.2,1.2,0,0,0,1.7,1.7A14.463,14.463,0,0,0,433.844,122.563Z" transform="translate(-397.217 -115.653)" fill="#fb5252"/>
    <path id="Path_45" data-name="Path 45" d="M7.127,129.005H1.2a1.2,1.2,0,0,0-1.2,1.2v17.937a1.2,1.2,0,0,0,1.2,1.2H7.127Z" transform="translate(0 -121.903)" fill="#fb5252"/>
    <path id="Path_46" data-name="Path 46" d="M128.257,40.841,119,46.476V68.688l9.257,5.635a3.6,3.6,0,0,0,5.477-3.078V43.919A3.6,3.6,0,0,0,128.257,40.841Z" transform="translate(-109.471 -40.31)" fill="#fb5252"/>
  </g>
</svg>
